<svg xmlns="http://www.w3.org/2000/svg"  viewBox="0 0 100 100" width="100px" height="100px"><path fill="#fb7369" d="M91.974,39.775c-0.004-0.004-0.008-0.015-0.012-0.017C79.987,29.693,67.912,20.26,57.173,13.347	c-1.183-0.761-2.431-1.415-3.762-1.857c-0.02-0.007-0.04-0.013-0.06-0.02c-1.073-0.352-2.192-0.529-3.312-0.536v-0.003	c-0.013,0-0.026,0.001-0.039,0.002c-0.013,0-0.026-0.002-0.039-0.002v0.003c-1.12,0.008-2.239,0.185-3.312,0.536	c-0.02,0.007-0.04,0.013-0.06,0.02c-1.331,0.442-2.58,1.095-3.762,1.857C32.088,20.26,20.013,29.693,8.037,39.757	c-0.003,0.003-0.008,0.014-0.012,0.017c-1.803,1.483-2.466,3.788-1.454,5.491c1.144,1.924,3.987,2.344,6.35,0.939	c0.117-0.07,0.215-0.156,0.326-0.232c12.269,0.954,24.506,1.419,36.713,1.428v0.001c0.013,0,0.026,0,0.039,0s0.026,0,0.039,0v-0.001	c12.208-0.01,24.445-0.475,36.713-1.428c0.11,0.076,0.208,0.162,0.326,0.232c2.363,1.405,5.206,0.985,6.35-0.939	C94.441,43.563,93.777,41.257,91.974,39.775z"/><path fill="#c9dcf4" d="M86.755,45.974l0.008-0.004c-13.426-7.7-25.521-15.401-35.778-21.726c-0.653-0.403-1.481-0.409-2.142-0.018	c-11.11,6.584-22.981,14.07-35.59,21.747c-0.002,0-0.004,0-0.006,0c-0.004,0.003-0.007,0.005-0.011,0.008	c0.865,11.972,2.129,23.603,3.643,34.818c0.803,4.868,4.069,8.202,8.8,8.202h48.641c4.731,0,7.774-3.539,8.8-8.202	c2.118-11.675,3.372-23.263,3.722-34.761C86.814,46.016,86.785,45.995,86.755,45.974z"/><path fill="#4a254b" d="M50,74.104c3.655,0,6.664-2.76,7.06-6.309C57.108,67.357,56.803,67,56.362,67c-2.45,0-10.274,0-12.724,0	c-0.44,0-0.746,0.357-0.697,0.795C43.335,71.344,46.345,74.104,50,74.104z"/><circle cx="32.927" cy="59.747" r="6.991" fill="#fff"/><circle cx="32.927" cy="59.747" r="3.178" fill="#4a254b"/><circle cx="67.073" cy="59.747" r="6.991" fill="#fff"/><circle cx="67.073" cy="59.747" r="3.178" fill="#4a254b"/><path fill="#fb7369" d="M81,33H69V20.691C69,19.205,70.205,18,71.691,18h6.617C79.795,18,81,19.205,81,20.691V33z"/></svg>